<?xml version="1.0" encoding="UTF-8" standalone="no"?>
<!-- Created with Inkscape (http://www.inkscape.org/) -->

<svg
   xmlns:dc="http://purl.org/dc/elements/1.1/"
   xmlns:cc="http://creativecommons.org/ns#"
   xmlns:rdf="http://www.w3.org/1999/02/22-rdf-syntax-ns#"
   xmlns:svg="http://www.w3.org/2000/svg"
   xmlns="http://www.w3.org/2000/svg"
   xmlns:sodipodi="http://sodipodi.sourceforge.net/DTD/sodipodi-0.dtd"
   xmlns:inkscape="http://www.inkscape.org/namespaces/inkscape"
   width="143.07774mm"
   height="117.19132mm"
   viewBox="0 0 143.07774 117.19132"
   version="1.1"
   id="svg8"
   inkscape:version="0.92.4 (5da689c313, 2019-01-14)"
   sodipodi:docname="rysunek3.svg">
  <defs
     id="defs2" />
  <sodipodi:namedview
     id="base"
     pagecolor="#ffffff"
     bordercolor="#666666"
     borderopacity="1.0"
     inkscape:pageopacity="0.0"
     inkscape:pageshadow="2"
     inkscape:zoom="0.49497475"
     inkscape:cx="-456.90321"
     inkscape:cy="475.03606"
     inkscape:document-units="mm"
     inkscape:current-layer="layer1"
     showgrid="false"
     inkscape:window-width="1920"
     inkscape:window-height="1017"
     inkscape:window-x="1912"
     inkscape:window-y="-8"
     inkscape:window-maximized="1"
     showguides="false" />
  <metadata
     id="metadata5">
    <rdf:RDF>
      <cc:Work
         rdf:about="">
        <dc:format>image/svg+xml</dc:format>
        <dc:type
           rdf:resource="http://purl.org/dc/dcmitype/StillImage" />
        <dc:title />
      </cc:Work>
    </rdf:RDF>
  </metadata>
  <g
     inkscape:label="Layer 1"
     inkscape:groupmode="layer"
     id="layer1"
     transform="translate(-84.911134,-188.88004)">
    <g
       id="g53"
       transform="translate(10.583333,5.2916667)">
      <path
         inkscape:connector-curvature="0"
         id="path848"
         d="m 174.3555,285.58102 c -5.70913,-1.22197 -10.99472,-5.2893 -13.92017,-10.71175 -3.14484,-5.82912 -4.86061,-11.59238 -5.06766,-17.02226 -0.32125,-8.42484 2.1767,-13.22998 9.74931,-18.75417 6.75412,-4.92709 14.76065,-8.43875 24.14414,-10.5896 4.17881,-0.95785 11.89257,-1.0472 15.29289,-0.17711 3.18233,0.81428 6.47523,2.70928 8.44839,4.86188 4.72343,5.15297 5.69958,13.96259 2.67184,24.11307 -2.68181,8.99075 -8.98662,18.38705 -15.00607,22.36411 -3.62376,2.39423 -9.88614,4.79422 -15.06943,5.77519 -2.72418,0.51556 -9.1179,0.59554 -11.24324,0.14064 z m 8.67781,-3.66262 c 6.37496,-1.71879 9.59161,-3.52613 13.05157,-7.33325 5.08655,-5.59691 8.22811,-12.93364 8.59305,-20.06801 0.41511,-8.11551 -2.61822,-12.99776 -9.32415,-15.00755 -2.94503,-0.88264 -8.61826,-0.73835 -12.88323,0.32763 -10.67185,2.66736 -20.33821,8.60888 -22.89257,14.07116 -2.26228,4.83769 -1.75348,11.24254 1.45785,18.35151 2.50531,5.54606 6.15261,8.88509 11.02369,10.09193 2.47644,0.61354 7.88252,0.40003 10.97379,-0.43342 z"
         style="opacity:1;fill:#b3b3b3;fill-opacity:1;stroke:none;stroke-width:2.2448163;stroke-miterlimit:4;stroke-dasharray:none" />
      <path
         sodipodi:nodetypes="cc"
         inkscape:connector-curvature="0"
         id="path850"
         d="m 105.02416,185.00456 c -29.601673,22.63722 19.80788,17.66241 -4.05657,38.36277"
         style="opacity:1;fill:none;stroke:#cccccc;stroke-width:3.56564879;stroke-linecap:butt;stroke-linejoin:round;stroke-opacity:1" />
      <path
         style="opacity:1;fill:none;stroke:#cccccc;stroke-width:3.56564879;stroke-linecap:butt;stroke-linejoin:round;stroke-opacity:1"
         d="m 135.96498,185.00456 c -29.60168,22.63722 19.80789,17.66241 -4.05658,38.36277"
         id="path882"
         inkscape:connector-curvature="0"
         sodipodi:nodetypes="cc" />
      <path
         sodipodi:nodetypes="cc"
         inkscape:connector-curvature="0"
         id="path884"
         d="m 166.90581,185.00456 c -29.60167,22.63722 19.80789,17.66241 -4.05656,38.36277"
         style="opacity:1;fill:none;stroke:#cccccc;stroke-width:3.56564879;stroke-linecap:butt;stroke-linejoin:round;stroke-opacity:1" />
      <path
         inkscape:connector-curvature="0"
         id="path890"
         d="m 167.23434,294.45875 c 0.67411,-1.99263 0.27602,-5.49216 -1.08466,-9.53468 -0.72506,-2.1541 -1.46627,-3.91504 -3.07555,-7.30683 -1.86812,-3.93734 -2.06279,-4.76101 -1.0723,-4.53711 0.95499,0.2159 3.27498,2.40045 5.3301,5.01887 3.56172,4.53806 5.63757,9.29846 5.3475,12.26313 -0.083,0.84951 -0.55716,2.10639 -0.98043,2.59951 -0.80871,0.9422 -2.09066,1.64874 -3.62035,1.9953 -0.48905,0.11091 -0.92992,0.19495 -0.97986,0.18608 -0.0498,-0.009 0.0109,-0.31644 0.1356,-0.68424 z"
         style="opacity:1;fill:#b3b3b3;fill-opacity:1;stroke:none;stroke-width:1.80995905;stroke-linejoin:round;stroke-miterlimit:4;stroke-dasharray:none" />
      <path
         inkscape:connector-curvature="0"
         id="path890-5"
         d="m 174.49673,231.25706 c 2.04154,0.50712 5.49618,-0.17874 9.41244,-1.86881 2.08683,-0.90057 3.78051,-1.78474 7.02772,-3.66877 3.76951,-2.18709 4.57428,-2.44915 4.43299,-1.44355 -0.13618,0.96959 -2.12163,3.46215 -4.56128,5.72658 -4.22825,3.92453 -8.80084,6.38663 -11.77934,6.34251 -0.85346,-0.0126 -2.14522,-0.3812 -2.67163,-0.76227 -1.0058,-0.7281 -1.81585,-1.94728 -2.28763,-3.44312 -0.15098,-0.47817 -0.27116,-0.91059 -0.26638,-0.96112 0.005,-0.0503 0.31625,-0.0153 0.69311,0.0786 z"
         style="opacity:1;fill:#b3b3b3;fill-opacity:1;stroke:none;stroke-width:1.80995905;stroke-linejoin:round;stroke-miterlimit:4;stroke-dasharray:none" />
      <path
         sodipodi:nodetypes="cccccc"
         inkscape:connector-curvature="0"
         id="path815-9"
         d="m 74.358266,229.28795 c -0.70721,20.93626 11.058885,45.1191 18.575174,47.8885 0.08353,6.88137 13.81557,24.12164 38.10871,23.59123 23.61782,0.52854 42.16768,-16.5199 40.18334,-23.32396 7.37644,-0.56512 16.39011,-27.04965 16.49484,-48.15577 z"
         style="opacity:1;fill:#b3b3b3;fill-opacity:1;stroke:none;stroke-width:2.18807435;stroke-miterlimit:4;stroke-dasharray:none" />
    </g>
  </g>
</svg>
